<?xml version="1.0" standalone="no"?>
<!DOCTYPE svg PUBLIC "-//W3C//DTD SVG 20010904//EN"
 "http://www.w3.org/TR/2001/REC-SVG-20010904/DTD/svg10.dtd">
<svg version="1.0" xmlns="http://www.w3.org/2000/svg"
 width="195.000000pt" height="195.000000pt" viewBox="0 0 195.000000 195.000000"
 preserveAspectRatio="xMidYMid meet">
<metadata>
Created by potrace 1.11, written by Peter Selinger 2001-2013
</metadata>
<g transform="translate(0.000000,195.000000) scale(0.100000,-0.100000)"
fill="#000000" stroke="none">
<path d="M290 1480 l0 -180 300 0 300 0 0 -120 0 -120 -300 0 -300 0 0 -32 0
-33 330 3 329 3 3 179 3 180 -302 0 -303 0 0 120 0 120 303 0 302 0 0 30 0 30
-332 0 -333 0 0 -180z"/>
<path d="M1040 1328 l0 -333 335 3 335 3 0 329 0 330 -35 0 -35 0 0 -300 0
-300 -265 0 -265 0 0 300 0 300 -35 0 -35 0 0 -332z"/>
<path d="M1190 1405 l0 -255 185 0 185 0 0 255 0 255 -35 0 -35 0 0 -225 0
-225 -115 0 -115 0 0 225 0 225 -35 0 -35 0 0 -255z"/>
<path d="M1340 1480 l0 -180 35 0 35 0 0 180 0 180 -35 0 -35 0 0 -180z"/>
<path d="M440 1480 l0 -30 254 0 254 0 4 30 5 30 -259 0 -258 0 0 -30z"/>
<path d="M290 1180 l0 -29 255 -3 255 -3 0 33 0 32 -255 0 -255 0 0 -30z"/>
<path d="M290 875 l0 -35 150 0 150 0 0 -300 0 -300 30 0 30 0 0 300 0 300
149 0 149 0 4 35 4 35 -333 0 -333 0 0 -35z"/>
<path d="M1040 875 l0 -35 300 0 300 0 0 -265 0 -265 -300 0 -300 0 0 -35 0
-35 335 0 335 0 0 335 0 335 -335 0 -335 0 0 -35z"/>
<path d="M290 725 l0 -35 75 0 75 0 0 -225 0 -225 30 0 30 0 0 260 0 260 -105
0 -105 0 0 -35z"/>
<path d="M740 500 l0 -260 30 0 30 0 0 225 0 225 75 0 75 0 0 35 0 35 -105 0
-105 0 0 -260z"/>
<path d="M1040 725 l0 -35 225 0 225 0 0 -115 0 -115 -225 0 -225 0 0 -35 0
-35 260 0 260 0 0 185 0 185 -260 0 -260 0 0 -35z"/>
<path d="M290 425 l0 -185 30 0 30 0 0 185 0 185 -30 0 -30 0 0 -185z"/>
<path d="M890 425 l0 -185 33 0 32 0 -3 185 -3 185 -29 0 -30 0 0 -185z"/>
<path d="M1040 575 l0 -35 185 0 185 0 0 35 0 35 -185 0 -185 0 0 -35z"/>
</g>
</svg>
